<svg xmlns="http://www.w3.org/2000/svg" width="40" height="40" viewBox="0 0 128 128">
<path fill="#0FAAFF" d="M0 109.9V18.1C0 8.1 8.1 0 18.1 0h91.8c10 0 18.1 8.1 18.1 18.1v91.8c0 10-8.1 18.1-18.1 18.1H18.1C8.1 128 0 119.9 0 109.9z"/>
<path fill="#FFF" d="M85.1 43.1c-1.6-1.6-3.7-2.4-6.3-2.4H51.4c-2.6 0-4.7.8-6.3 2.4-1.6 1.6-2.4 3.7-2.4 6.3v29.2c0 2.6.8 4.7 2.4 6.3 1.6 1.6 3.7 2.4 6.3 2.4h27.4c2.6 0 4.7-.8 6.3-2.4 1.6-1.6 2.4-3.7 2.4-6.3V49.4c0-2.6-.8-4.7-2.4-6.3zM64 86.7c-2.6 0-4.7-2.1-4.7-4.7s2.1-4.7 4.7-4.7 4.7 2.1 4.7 4.7-2.1 4.7-4.7 4.7zm0-23.5c-2.6 0-4.7-2.1-4.7-4.7s2.1-4.7 4.7-4.7 4.7 2.1 4.7 4.7-2.1 4.7-4.7 4.7zm0-23.5c-2.6 0-4.7-2.1-4.7-4.7s2.1-4.7 4.7-4.7 4.7 2.1 4.7 4.7-2.1 4.7-4.7 4.7z"/>
</svg>
