<svg xmlns="http://www.w3.org/2000/svg" width="112" height="112" viewBox="0 0 112 112"><path fill="#034" d="M85.238 93.025c-3.212 2.161-7.314 3.625-11.848 4.338-4.535.713-9.625.979-14.854.979-12.359 0-22.107-2.193-29.245-6.579-7.139-4.385-12.479-10.692-16.021-18.92C10.228 64.495 8.457 55.33 8.457 45.164c0-10.427 2.038-19.815 6.115-28.163 4.077-8.348 9.879-14.894 17.406-19.64C39.505-7.386 48.4-9.759 58.645-9.759c4.535 0 8.771.4 12.709 1.2 3.938.8 7.447 1.911 10.529 3.334 3.081 1.423 5.655 3.038 7.721 4.845 2.066 1.807 3.565 3.675 4.495 5.604l-12.916 8.305c-2.393-3.489-5.476-6.299-9.25-8.43-3.774-2.13-8.482-3.196-14.123-3.196-8.771 0-15.723 2.663-20.854 7.989-5.132 5.326-7.698 12.791-7.698 22.395 0 9.462 2.5 16.851 7.498 22.168 4.999 5.317 11.751 7.975 20.255 7.975 3.895 0 7.287-.444 10.178-1.333 2.89-.889 5.344-2.127 7.36-3.716 2.015-1.588 3.652-3.438 4.909-5.548 1.257-2.11 2.204-4.36 2.841-6.752H57.536V52.25h41.963c.178 1.244.267 2.785.267 4.623 0 6.044-.889 11.607-2.667 16.688-1.778 5.081-4.387 9.503-7.829 13.265-3.441 3.762-7.616 6.733-12.523 8.913-4.908 2.18-10.407 3.388-16.497 3.623v-14.123c4.98-.356 9.25-1.422 12.809-3.196 3.56-1.775 6.541-4.118 8.945-7.032z"/></svg>
