<svg xmlns="http://www.w3.org/2000/svg" width="40" height="40" viewBox="0 0 128 128">
<path fill="#FCC624" d="M122.444 91.503c-2.61-7.217-8.704-9.512-8.704-9.512s1.024-5.11 1.024-11.782c6.144 0 10.496-10.24 10.496-22.016S115.3 25.6 96.512 25.6c-18.432 0-33.28 12.288-33.28 27.392 0 4.608 1.28 8.96 3.328 12.8-10.752-.256-33.28-2.304-33.28-2.304S20.48 70.4 8.192 83.2c-5.12 5.376-6.4 12.032-6.4 17.408 0 12.544 21.248 22.784 47.36 22.784 42.24 0 65.792-17.152 72.192-31.488 2.56-5.632 1.024-10.752 1.024-10.752l-.924.351z"/>
<path fill="#000" d="M96.512 30.208c16.128 0 29.184 10.752 29.184 24.064s-13.056 24.064-29.184 24.064-29.184-10.752-29.184-24.064 13.056-24.064 29.184-24.064z"/>
<path fill="#FFF" d="M101.632 43.776c2.816 0 5.12 2.304 5.12 5.12s-2.304 5.12-5.12 5.12-5.12-2.304-5.12-5.12 2.304-5.12 5.12-5.12zM91.392 43.776c2.816 0 5.12 2.304 5.12 5.12s-2.304 5.12-5.12 5.12-5.12-2.304-5.12-5.12 2.304-5.12 5.12-5.12z"/>
<path fill="#000" d="M88.32 57.088c0 3.328-2.304 5.888-5.888 5.888-3.328 0-5.888-2.56-5.888-5.888 0-3.328 2.56-5.888 5.888-5.888 3.584 0 5.888 2.56 5.888 5.888z"/>
</svg>
