<svg xmlns="http://www.w3.org/2000/svg" width="40" height="40" viewBox="0 0 128 128">
<path fill="#0FAAFF" d="M0 109.9V18.1C0 8.1 8.1 0 18.1 0h91.8c10 0 18.1 8.1 18.1 18.1v91.8c0 10-8.1 18.1-18.1 18.1H18.1C8.1 128 0 119.9 0 109.9z"/>
<path fill="#FFF" d="M85.1 43.1c-1.6-1.6-3.7-2.4-6.3-2.4H51.4c-2.6 0-4.7.8-6.3 2.4-1.6 1.6-2.4 3.7-2.4 6.3v29.2c0 2.6.8 4.7 2.4 6.3 1.6 1.6 3.7 2.4 6.3 2.4h27.4c2.6 0 4.7-.8 6.3-2.4 1.6-1.6 2.4-3.7 2.4-6.3V49.4c0-2.6-.8-4.7-2.4-6.3zm-9.1 31.4c0 .8-.3 1.5-.9 2.1-.6.6-1.3.9-2.1.9H57.2c-.8 0-1.5-.3-2.1-.9-.6-.6-.9-1.3-.9-2.1v-3.2c0-.8.3-1.5.9-2.1.6-.6 1.3-.9 2.1-.9h13.6c.8 0 1.5.3 2.1.9.6.6.9 1.3.9 2.1v3.2zm0-11.9c0 .8-.3 1.5-.9 2.1-.6.6-1.3.9-2.1.9H57.2c-.8 0-1.5-.3-2.1-.9-.6-.6-.9-1.3-.9-2.1v-3.2c0-.8.3-1.5.9-2.1.6-.6 1.3-.9 2.1-.9h13.6c.8 0 1.5.3 2.1.9.6.6.9 1.3.9 2.1v3.2zm7.5-11.9H57.2c-.8 0-1.5.3-2.1.9-.6.6-.9 1.3-.9 2.1v3.2c0 .8.3 1.5.9 2.1.6.6 1.3.9 2.1.9h26.3c.8 0 1.5-.3 2.1-.9.6-.6.9-1.3.9-2.1v-3.2c0-.8-.3-1.5-.9-2.1-.6-.6-1.3-.9-2.1-.9z"/>
</svg>
